:FULLY-SPECIFIED
:FORCE-ALL-JOINTS-BE-3DOF
:DEGREES
1427
root -2.09114 13.7331 12.6657 366.175 27.302 366.245
lfemur 24.6829 -0.230175 -10.5746
ltibia 18.2547 0 0
lfoot -16.4015 34.625 0
ltoes -23.4647 0 0
rfemur -64.3949 -20.5506 11.7495
rtibia 72.24 0 0
rfoot -7.99657 9.78971 0
rtoes 3.66399 0 0
lowerback 10.3936 2.06293 -10.0974
upperback -3.24028 1.2608 -0.949844
thorax -9.60595 1.1775 4.42114
lowerneck 0.145857 -11.7048 -10.6809
upperneck 5.99416 -16.1234 9.87832
head 3.42994 -8.01887 3.97231
lclavicle 3.16978e-14 -1.52953e-15 0
lhumerus -73.8434 -17.7439 104.016
lradius 101.157 0 0
lwrist 58.5916 0 0
lhand -9.70778 41.9037 0
lfingers 7.12502 0 0
lthumb 16.265 -288.759 0
rclavicle 3.16978e-14 -1.52953e-15 0
rhumerus 62.8941 -13.6569 -27.6348
rradius 81.959 0 0
rwrist 27.4528 0 0
rhand -43.6446 -31.4396 0
rfingers 7.12502 0 0
rthumb -16.4789 -60.759 0
1428
root -2.09393 13.7292 12.6688 366.252 27.2718 366.259
lfemur 24.7912 -0.214501 -10.4989
ltibia 18.0762 0 0
lfoot -16.2897 34.6393 0
ltoes -23.4442 0 0
rfemur -64.6302 -20.691 11.8938
rtibia 72.5489 0 0
rfoot -8.18686 9.89636 0
rtoes 3.88912 0 0
lowerback 10.3615 2.05619 -10.0984
upperback -3.26738 1.25513 -0.939301
thorax -9.617 1.1767 4.43426
lowerneck 0.106845 -11.6952 -10.6449
upperneck 6.01435 -16.1049 9.82883
head 3.43335 -8.00882 3.95127
lclavicle 3.39292e-14 -2.02217e-15 0
lhumerus -73.8396 -17.8096 104.093
lradius 101.098 0 0
lwrist 58.5723 0 0
lhand -9.67322 41.8056 0
lfingers 7.12502 0 0
lthumb 16.2983 -288.86 0
rclavicle 3.39292e-14 -2.02217e-15 0
rhumerus 62.9105 -13.6975 -27.6695
rradius 81.9928 0 0
rwrist 27.3474 0 0
rhand -43.659 -31.3798 0
rfingers 7.12502 0 0
rthumb -16.4929 -60.6981 0
1429
root -2.09671 13.7252 12.6719 366.341 27.2383 366.274
lfemur 24.919 -0.197626 -10.4164
ltibia 17.8607 0 0
lfoot -16.1624 34.6531 0
ltoes -23.429 0 0
rfemur -64.8923 -20.8458 12.0527
rtibia 72.8949 0 0
rfoot -8.40249 10.0106 0
rtoes 4.13428 0 0
lowerback 10.3262 2.0491 -10.0971
upperback -3.29667 1.24969 -0.928042
thorax -9.62864 1.17603 4.44685
lowerneck 0.0651492 -11.6849 -10.6066
upperneck 6.0347 -16.0849 9.776
head 3.43663 -7.998 3.92888
lclavicle 3.6319e-14 -2.5563e-15 0
lhumerus -73.8314 -17.8834 104.177
lradius 101.033 0 0
lwrist 58.5474 0 0
lhand -9.63601 41.712 0
lfingers 7.12502 0 0
lthumb 16.3342 -288.956 0
rclavicle 3.6319e-14 -2.5563e-15 0
rhumerus 62.9285 -13.7433 -27.7046
rradius 82.0284 0 0
rwrist 27.2343 0 0
rhand -43.6764 -31.3105 0
rfingers 7.12502 0 0
rthumb -16.5096 -60.6275 0
1430
root -2.0995 13.7212 12.6749 366.443 27.2013 366.293
lfemur 25.0671 -0.17951 -10.3268
ltibia 17.6064 0 0
lfoot -16.0188 34.6662 0
ltoes -23.4195 0 0
rfemur -65.1825 -21.0157 12.2268
rtibia 73.2794 0 0
rfoot -8.64455 10.1327 0
rtoes 4.40022 0 0
lowerback 10.2876 2.04164 -10.0934
upperback -3.32824 1.24449 -0.916043
thorax -9.64087 1.17547 4.45886
lowerneck 0.0206799 -11.6739 -10.5661
upperneck 6.05519 -16.0634 9.71974
head 3.43977 -7.98638 3.9051
lclavicle 3.88724e-14 -3.13345e-15 0
lhumerus -73.8184 -17.9657 104.268
lradius 100.96 0 0
lwrist 58.5168 0 0
lhand -9.59607 41.6233 0
lfingers 7.12502 0 0
lthumb 16.3726 -289.048 0
rclavicle 3.88724e-14 -3.13345e-15 0
rhumerus 62.9481 -13.7944 -27.7401
rradius 82.0657 0 0
rwrist 27.1132 0 0
rhand -43.6968 -31.2314 0
rfingers 7.12502 0 0
rthumb -16.5293 -60.5469 0
1431
root -2.10228 13.7173 12.678 366.558 27.1607 366.313
lfemur 25.2365 -0.160108 -10.2298
ltibia 17.3116 0 0
lfoot -15.8583 34.6786 0
ltoes -23.416 0 0
rfemur -65.5018 -21.2013 12.4168
rtibia 73.7041 0 0
rfoot -8.91413 10.263 0
rtoes 4.6877 0 0
lowerback 10.2455 2.03382 -10.0872
upperback -3.36217 1.23956 -0.903281
thorax -9.65372 1.17504 4.47025
lowerneck -0.026652 -11.6621 -10.5232
upperneck 6.07579 -16.0403 9.65994
head 3.44274 -7.97392 3.8799
lclavicle 4.1595e-14 -3.75516e-15 0
lhumerus -73.8006 -18.0568 104.366
lradius 100.88 0 0
lwrist 58.4802 0 0
lhand -9.5533 41.5399 0
lfingers 7.12502 0 0
lthumb 16.4138 -289.135 0
rclavicle 4.1595e-14 -3.75516e-15 0
rhumerus 62.9694 -13.851 -27.776
rradius 82.1049 0 0
rwrist 26.9837 0 0
rhand -43.7204 -31.1419 0
rfingers 7.12502 0 0
rthumb -16.552 -60.4557 0
1432
root -2.10507 13.7133 12.6811 366.687 27.1164 366.337
lfemur 25.428 -0.13938 -10.1251
ltibia 16.9746 0 0
lfoot -15.6802 34.6903 0
ltoes -23.4189 0 0
rfemur -65.8514 -21.4031 12.6231
rtibia 74.1706 0 0
rfoot -9.21234 10.4016 0
rtoes 4.99748 0 0
lowerback 10.1999 2.02562 -10.0784
upperback -3.39853 1.23491 -0.889731
thorax -9.6672 1.17475 4.48096
lowerneck -0.0769358 -11.6496 -10.4778
upperneck 6.09649 -16.0156 9.59648
head 3.44555 -7.96061 3.85322
lclavicle 4.4492e-14 -4.42296e-15 0
lhumerus -73.7777 -18.1571 104.472
lradius 100.792 0 0
lwrist 58.4373 0 0
lhand -9.50761 41.4622 0
lfingers 7.12502 0 0
lthumb 16.4578 -289.216 0
rclavicle 4.4492e-14 -4.42296e-15 0
rhumerus 62.9925 -13.9134 -27.8122
rradius 82.1459 0 0
rwrist 26.8457 0 0
rhand -43.7472 -31.0417 0
rfingers 7.12502 0 0
rthumb -16.5778 -60.3536 0
1433
root -2.12806 13.7186 12.6804 366.75 27.2122 366.371
lfemur 25.2781 -0.173084 -10.0637
ltibia 17.0484 0 0
lfoot -15.6528 34.6355 0
ltoes -23.5001 0 0
rfemur -65.8846 -21.3627 12.6143
rtibia 74.1894 0 0
rfoot -9.23136 10.2328 0
rtoes 4.96499 0 0
lowerback 10.2685 2.02873 -10.0345
upperback -3.38013 1.24132 -0.887764
thorax -9.68553 1.17525 4.45561
lowerneck -0.14825 -11.5692 -10.4312
upperneck 6.08677 -15.8983 9.51229
head 3.4409 -7.90272 3.82687
lclavicle 4.50118e-14 -4.39452e-15 0
lhumerus -73.4896 -18.2204 104.402
lradius 100.771 0 0
lwrist 58.3298 0 0
lhand -9.63925 41.4527 0
lfingers 7.12502 0 0
lthumb 16.3308 -289.22 0
rclavicle 4.50118e-14 -4.39452e-15 0
rhumerus 62.8741 -13.7237 -27.7932
rradius 82.0936 0 0
rwrist 26.6626 0 0
rhand -43.519 -30.9806 0
rfingers 7.12502 0 0
rthumb -16.3575 -60.2989 0
